<svg width="24" height="24" viewBox="0 0 24 24" fill="none" xmlns="http://www.w3.org/2000/svg">

  <path d="M12 3C9.2386 3 7 5.2386 7 8V10.5C7 11.621 6.7071 12.7239 6.1504 13.7016L5.3 15.2C4.85 16 5.42 17 6.35 17H17.65C18.58 17 19.15 16 18.7 15.2L17.8496 13.7016C17.2929 12.7239 17 11.621 17 10.5V8C17 5.2386 14.7614 3 12 3Z" stroke="currentColor" stroke-width="2" stroke-linejoin="round"></path>

  <path d="M9.5 19C9.5 20.3807 10.6193 21.5 12 21.5C13.3807 21.5 14.5 20.3807 14.5 19" stroke="currentColor" stroke-width="2" stroke-linecap="round"></path>
</svg>
