<svg width="24" height="24" viewBox="0 0 24 24" fill="none" xmlns="http://www.w3.org/2000/svg">

  <path d="M12 15.5C13.933 15.5 15.5 13.933 15.5 12C15.5 10.067 13.933 8.5 12 8.5C10.067 8.5 8.5 10.067 8.5 12C8.5 13.933 10.067 15.5 12 15.5Z" stroke="currentColor" stroke-width="2"></path>

  <path d="M19.4 15C19.6 14.4 20.2 14 20.9 14H21V10H20.9C20.2 10 19.6 9.6 19.4 9
       C19.2 8.4 19.4 7.7 19.9 7.2L20 7.1L17.2 4.3L17.1 4.4
       C16.6 4.9 15.9 5.1 15.3 4.9C14.7 4.7 14.3 4.1 14.3 3.4V3H9.7V3.4
       C9.7 4.1 9.3 4.7 8.7 4.9C8.1 5.1 7.4 4.9 6.9 4.4L6.8 4.3L4 7.1L4.1 7.2
       C4.6 7.7 4.8 8.4 4.6 9C4.4 9.6 3.8 10 3.1 10H3V14H3.1
       C3.8 14 4.4 14.4 4.6 15C4.8 15.6 4.6 16.3 4.1 16.8L4 16.9L6.8 19.7L6.9 19.6
       C7.4 19.1 8.1 18.9 8.7 19.1C9.3 19.3 9.7 19.9 9.7 20.6V21H14.3V20.6
       C14.3 19.9 14.7 19.3 15.3 19.1C15.9 18.9 16.6 19.1 17.1 19.6L17.2 19.7
       L20 16.9L19.9 16.8C19.4 16.3 19.2 15.6 19.4 15Z" stroke="currentColor" stroke-width="2" stroke-linejoin="round"></path>
</svg>
